<svg xmlns="http://www.w3.org/2000/svg" width="29" height="24" viewBox="0 0 29 24"><g><g><path fill="#424242" d="M29.005 2.852a11.75 11.75 0 0 1-3.424.938A6.02 6.02 0 0 0 28.195.453c-1.141.693-2.43 1.2-3.774 1.462A5.882 5.882 0 0 0 20.077.003c-3.295 0-5.946 2.718-5.946 6.055 0 .47.055.938.147 1.388-4.933-.263-9.333-2.662-12.26-6.337-.515.9-.81 1.931-.81 3.056 0 2.1 1.05 3.955 2.651 5.043a5.908 5.908 0 0 1-2.687-.769v.075c0 2.944 2.043 5.38 4.767 5.943a6.175 6.175 0 0 1-1.564.207 7.36 7.36 0 0 1-1.123-.094c.755 2.4 2.945 4.143 5.56 4.2a11.771 11.771 0 0 1-7.382 2.587c-.498 0-.958-.02-1.436-.075A16.582 16.582 0 0 0 9.124 24c10.935 0 16.917-9.224 16.917-17.23 0-.262 0-.524-.018-.787a12.917 12.917 0 0 0 2.982-3.13z"/></g></g></svg>